<?xml version="1.0" encoding="UTF-8"?>
<!DOCTYPE svg PUBLIC "-//W3C//DTD SVG 1.1//EN" "http://www.w3.org/Graphics/SVG/1.1/DTD/svg11.dtd">
<svg xmlns="http://www.w3.org/2000/svg" version="1.1" width="1085px" height="250px" style="shape-rendering:geometricPrecision; text-rendering:geometricPrecision; image-rendering:optimizeQuality; fill-rule:evenodd; clip-rule:evenodd" xmlns:xlink="http://www.w3.org/1999/xlink">
<g><path style="opacity:1" fill="#fefefe" d="M -0.5,-0.5 C 361.167,-0.5 722.833,-0.5 1084.5,-0.5C 1084.5,82.8333 1084.5,166.167 1084.5,249.5C 780.167,249.5 475.833,249.5 171.5,249.5C 175.5,248.5 179.5,247.5 183.5,246.5C 225.213,236.624 253.713,211.624 269,171.5C 283.968,121.751 272.468,79.2506 234.5,44C 218.235,30.3696 199.568,21.8696 178.5,18.5C 163.212,15.7564 147.879,16.0898 132.5,19.5C 84.3076,33.1935 54.8076,64.5268 44,113.5C 38.0408,168.081 58.5408,209.248 105.5,237C 114.955,241.206 124.621,244.706 134.5,247.5C 138.078,247.549 141.411,248.215 144.5,249.5C 96.1667,249.5 47.8333,249.5 -0.5,249.5C -0.5,166.167 -0.5,82.8333 -0.5,-0.5 Z"/></g>
<g><path style="opacity:1" fill="#e1e1e1" d="M 132.5,19.5 C 140.965,23.2231 149.631,26.7231 158.5,30C 147.227,33.6982 136.227,37.8649 125.5,42.5C 136.345,47.2843 147.345,51.7843 158.5,56C 147.305,59.7128 136.305,63.8794 125.5,68.5C 136.37,73.2906 147.37,77.7906 158.5,82C 147.329,85.7097 136.329,89.8763 125.5,94.5C 136.282,98.7242 146.949,103.224 157.5,108C 146.833,112 136.167,116 125.5,120C 136.167,124.667 146.833,129.333 157.5,134C 146.678,137.607 136.012,141.607 125.5,146C 135.975,150.775 146.641,155.275 157.5,159.5C 146.804,163.566 136.137,167.733 125.5,172C 136.03,176.763 146.696,181.263 157.5,185.5C 146.77,189.575 136.103,193.742 125.5,198C 136.269,202.144 146.936,206.477 157.5,211C 146.833,215.333 136.167,219.667 125.5,224C 136.19,228.336 146.857,232.669 157.5,237C 150.526,240.216 143.359,243.049 136,245.5C 134.97,245.836 134.47,246.503 134.5,247.5C 124.621,244.706 114.955,241.206 105.5,237C 58.5408,209.248 38.0408,168.081 44,113.5C 54.8076,64.5268 84.3076,33.1935 132.5,19.5 Z"/></g>
<g><path style="opacity:1" fill="#70193c" d="M 178.5,18.5 C 199.568,21.8696 218.235,30.3696 234.5,44C 272.468,79.2506 283.968,121.751 269,171.5C 253.713,211.624 225.213,236.624 183.5,246.5C 181.883,245.962 180.216,245.629 178.5,245.5C 178.32,241.153 180.153,237.819 184,235.5C 190.359,225.115 195.359,214.115 199,202.5C 210.251,156.16 210.251,109.827 199,63.5C 195.004,51.177 189.67,39.5103 183,28.5C 180.858,26.1733 178.358,24.5066 175.5,23.5C 175.5,21.8333 175.5,20.1667 175.5,18.5C 176.5,18.5 177.5,18.5 178.5,18.5 Z"/></g>
<g><path style="opacity:1" fill="#7d234b" d="M 178.5,18.5 C 177.5,18.5 176.5,18.5 175.5,18.5C 175.5,20.1667 175.5,21.8333 175.5,23.5C 178.358,24.5066 180.858,26.1733 183,28.5C 189.67,39.5103 195.004,51.177 199,63.5C 210.251,109.827 210.251,156.16 199,202.5C 195.359,214.115 190.359,225.115 184,235.5C 180.153,237.819 178.32,241.153 178.5,245.5C 180.216,245.629 181.883,245.962 183.5,246.5C 179.5,247.5 175.5,248.5 171.5,249.5C 162.5,249.5 153.5,249.5 144.5,249.5C 141.411,248.215 138.078,247.549 134.5,247.5C 134.47,246.503 134.97,245.836 136,245.5C 143.359,243.049 150.526,240.216 157.5,237C 146.857,232.669 136.19,228.336 125.5,224C 136.167,219.667 146.833,215.333 157.5,211C 146.936,206.477 136.269,202.144 125.5,198C 136.103,193.742 146.77,189.575 157.5,185.5C 146.696,181.263 136.03,176.763 125.5,172C 136.137,167.733 146.804,163.566 157.5,159.5C 146.641,155.275 135.975,150.775 125.5,146C 136.012,141.607 146.678,137.607 157.5,134C 146.833,129.333 136.167,124.667 125.5,120C 136.167,116 146.833,112 157.5,108C 146.949,103.224 136.282,98.7242 125.5,94.5C 136.329,89.8763 147.329,85.7097 158.5,82C 147.37,77.7906 136.37,73.2906 125.5,68.5C 136.305,63.8794 147.305,59.7128 158.5,56C 147.345,51.7843 136.345,47.2843 125.5,42.5C 136.227,37.8649 147.227,33.6982 158.5,30C 149.631,26.7231 140.965,23.2231 132.5,19.5C 147.879,16.0898 163.212,15.7564 178.5,18.5 Z"/></g>
</svg>
