<?xml version="1.0" standalone="no"?>
<!DOCTYPE svg PUBLIC "-//W3C//DTD SVG 20010904//EN"
 "http://www.w3.org/TR/2001/REC-SVG-20010904/DTD/svg10.dtd">
<svg version="1.0" xmlns="http://www.w3.org/2000/svg"
 width="600.000000pt" height="600.000000pt" viewBox="0 0 600.000000 600.000000"
 preserveAspectRatio="xMidYMid meet">

<g transform="translate(0.000000,600.000000) scale(0.100000,-0.100000)"
fill="#000000" stroke="none">
<path d="M2228 4982 c-16 -9 -28 -21 -28 -27 0 -8 15 -36 36 -63 4 -5 62 27
69 38 6 10 -31 70 -43 70 -4 0 -19 -8 -34 -18z"/>
<path d="M2095 4787 c-42 -19 -92 -79 -106 -128 -14 -45 -3 -109 28 -155 27
-41 97 -76 153 -76 182 0 259 239 110 338 -50 33 -137 43 -185 21z m148 -56
c14 -14 -1 -31 -28 -31 -24 0 -55 23 -55 42 0 13 68 4 83 -11z m-126 -18 c6
-16 -36 -63 -58 -63 -17 0 -9 33 13 57 26 27 36 29 45 6z m77 -54 c31 -14 38
-32 26 -64 -10 -25 -48 -42 -75 -32 -23 10 -29 54 -11 82 19 28 25 30 60 14z
m116 -50 c0 -33 -26 -51 -41 -28 -13 21 -11 36 7 53 21 21 34 12 34 -25z
m-220 -43 c23 -25 22 -56 -2 -56 -19 1 -51 48 -44 66 8 20 19 18 46 -10z m139
-45 c22 -14 6 -38 -29 -43 -38 -6 -53 18 -25 38 22 16 34 17 54 5z"/>
<path d="M2111 4299 l-23 -30 23 -25 c28 -30 40 -30 67 -1 28 29 27 37 -2 65
-30 28 -36 27 -65 -9z"/>
<path d="M2976 2392 c-4 -7 4 -27 18 -45 15 -19 26 -41 26 -50 0 -9 10 -23 22
-31 21 -15 24 -14 42 4 19 19 19 20 1 40 -10 11 -22 20 -26 20 -5 0 -24 16
-42 37 -22 24 -36 32 -41 25z"/>
<path d="M3160 2329 c0 -17 20 -49 30 -49 14 0 12 34 -2 48 -15 15 -28 15 -28
1z"/>
<path d="M3273 2290 c-24 -19 -29 -40 -14 -55 8 -9 36 -56 68 -115 7 -14 13
-35 13 -47 0 -16 4 -21 15 -17 8 4 15 14 15 23 0 18 -31 73 -60 104 -24 25
-26 75 -5 83 19 8 65 -22 65 -41 0 -18 -21 -19 -39 -2 -11 10 -13 9 -9 -2 11
-35 68 -40 68 -6 0 9 -10 30 -22 48 -13 18 -23 32 -23 33 0 1 -11 4 -25 7 -16
4 -33 -1 -47 -13z"/>
<path d="M3130 2273 c0 -5 7 -16 15 -27 12 -16 12 -20 -1 -33 -13 -14 -17 -13
-33 1 -22 20 -31 20 -31 2 0 -7 37 -50 82 -95 71 -72 85 -82 112 -79 23 2 32
9 34 26 4 25 -40 103 -76 136 -13 12 -35 33 -50 49 -24 25 -52 36 -52 20z m30
-103 c0 -5 -4 -10 -10 -10 -5 0 -10 5 -10 10 0 6 5 10 10 10 6 0 10 -4 10 -10z"/>
<path d="M2650 2200 c0 -19 3 -21 12 -12 9 9 9 15 0 24 -9 9 -12 7 -12 -12z"/>
<path d="M3035 2160 c-4 -7 -3 -16 3 -22 14 -14 47 -6 47 12 0 18 -40 26 -50
10z"/>
<path d="M3067 2089 c-13 -15 -16 -29 -12 -50 4 -16 11 -29 15 -29 5 0 18 -10
29 -21 21 -23 47 -20 57 6 6 14 -16 45 -32 45 -5 0 -3 -5 4 -12 18 -18 15 -28
-8 -28 -26 0 -46 36 -29 56 19 23 41 17 104 -31 61 -45 95 -57 95 -31 0 8 -13
17 -29 21 -15 3 -56 26 -90 51 -67 49 -78 51 -104 23z"/>
<path d="M3417 2082 c-32 -35 -20 -59 74 -157 49 -52 97 -111 105 -131 20 -48
37 -32 28 27 -6 38 -17 54 -80 115 -75 73 -89 102 -55 111 27 7 16 29 -21 42
-17 6 -32 11 -33 11 -1 0 -9 -8 -18 -18z"/>
<path d="M2760 1981 c0 -12 5 -21 10 -21 6 0 10 6 10 14 0 8 -4 18 -10 21 -5
3 -10 -3 -10 -14z"/>
<path d="M3390 1956 c0 -2 25 -51 55 -107 33 -61 69 -115 90 -132 19 -16 35
-33 35 -38 0 -6 12 -27 26 -47 21 -30 24 -32 19 -12 -4 14 -18 45 -31 69 -13
24 -24 54 -24 68 0 37 -16 62 -88 136 -58 59 -82 77 -82 63z"/>
<path d="M2780 1932 c0 -11 5 -24 10 -27 6 -3 10 -17 10 -31 0 -13 5 -24 10
-24 13 0 12 7 -3 52 -16 46 -27 58 -27 30z"/>
<path d="M3280 1930 c-11 -11 -20 -33 -20 -49 0 -55 22 -82 33 -41 6 25 38 26
61 2 9 -11 26 -47 37 -80 22 -66 56 -102 95 -102 31 0 39 16 15 29 -10 6 -42
55 -70 110 -46 89 -96 151 -122 151 -5 0 -18 -9 -29 -20z"/>
<path d="M3076 1733 c6 -40 5 -45 -9 -40 -29 11 -29 -13 -2 -49 21 -27 24 -38
15 -49 -8 -10 -6 -17 12 -29 28 -20 54 -20 153 1 92 19 124 14 160 -25 37 -37
46 -66 39 -115 -5 -35 -4 -40 7 -30 21 21 16 105 -9 140 -41 58 -67 67 -174
65 -89 -2 -99 0 -124 21 -33 28 -37 76 -9 107 22 25 37 25 58 2 23 -25 21 -53
-2 -59 -12 -3 -17 -11 -14 -19 9 -23 41 -16 57 13 13 25 12 32 -5 65 -22 43
-58 57 -95 37 -19 -10 -27 -10 -36 -1 -23 23 -29 12 -22 -35z"/>
<path d="M3261 1739 c6 -12 9 -37 7 -55 -4 -35 3 -43 19 -21 21 26 21 46 2 71
-25 32 -44 35 -28 5z"/>
<path d="M3643 1724 c-14 -37 29 -194 54 -194 12 0 32 36 33 59 0 22 -65 151
-76 151 -2 0 -7 -7 -11 -16z"/>
<path d="M3505 1620 c-4 -6 -3 -16 2 -23 6 -7 16 -28 23 -47 7 -19 20 -43 28
-52 19 -23 58 -23 71 -1 5 10 11 16 13 13 11 -15 38 -109 38 -133 0 -35 29
-87 48 -87 22 0 9 86 -17 114 -11 12 -21 27 -21 33 0 12 -23 63 -45 103 l-15
25 0 -23 c0 -13 -4 -20 -10 -17 -5 3 -10 14 -10 25 0 20 -63 80 -85 80 -7 0
-17 -5 -20 -10z"/>
<path d="M3245 1526 c-55 -27 -97 -76 -65 -76 6 0 10 -7 10 -15 0 -20 6 -19
39 4 34 24 104 43 145 39 39 -4 45 12 13 36 -33 24 -104 30 -142 12z"/>
<path d="M3741 1517 c-6 -8 -8 -17 -5 -20 9 -8 44 11 44 23 0 15 -26 12 -39
-3z"/>
<path d="M3763 1442 c-29 -4 -29 -17 2 -50 23 -24 26 -25 41 -10 10 10 14 23
10 36 -8 23 -22 29 -53 24z"/>
<path d="M3540 1408 c-57 -35 -84 -67 -94 -110 -6 -25 -4 -28 19 -28 18 0 28
7 35 26 6 14 35 50 65 80 30 31 55 57 55 60 0 12 -31 1 -80 -28z"/>
<path d="M3644 1372 c-22 -15 -54 -72 -54 -96 0 -36 26 -33 39 4 5 17 17 30
25 30 12 0 14 7 9 33 -7 39 -6 37 -19 29z"/>
<path d="M3780 1322 c0 -19 40 -44 57 -37 16 6 16 8 -6 26 -24 20 -51 25 -51
11z"/>
<path d="M3653 1245 c-27 -41 -13 -58 21 -26 31 29 39 26 31 -9 -5 -24 -4 -29
9 -24 8 3 18 15 22 27 5 16 -1 27 -22 44 -16 13 -31 23 -34 23 -3 0 -15 -16
-27 -35z"/>
<path d="M3770 1262 c0 -21 28 -45 45 -38 17 6 17 7 0 26 -18 20 -45 27 -45
12z"/>
<path d="M3760 1191 c0 -24 18 -37 32 -23 8 8 7 16 -2 27 -17 21 -30 19 -30
-4z"/>
<path d="M3367 1033 c-4 -3 -7 -19 -7 -34 0 -15 -4 -31 -10 -34 -5 -3 -10 -16
-10 -29 0 -13 -9 -31 -20 -41 -19 -17 -20 -17 -29 9 -8 19 -18 26 -36 26 -27
0 -55 -20 -55 -39 0 -14 6 -14 30 1 36 23 53 -18 37 -87 -11 -46 9 -66 67 -68
52 -2 50 -3 80 66 19 46 40 55 66 32 26 -23 34 -15 19 19 -16 34 -45 43 -70
20 -10 -9 -21 -15 -23 -13 -10 12 -14 56 -6 69 5 9 5 19 -2 27 -6 7 -8 22 -5
34 9 34 -8 61 -26 42z"/>
<path d="M3047 849 c-9 -5 -22 -7 -27 -4 -14 9 -83 -62 -77 -78 3 -8 26 -45
51 -81 25 -37 46 -72 46 -79 0 -22 -53 -87 -71 -87 -11 0 -19 -4 -19 -10 0
-14 6 -13 43 6 31 17 56 43 68 74 8 19 -14 74 -47 117 -31 40 -28 69 9 97 l27
20 22 -21 c28 -28 18 -58 -17 -49 -31 8 -35 -18 -6 -34 53 -28 97 54 51 95
-11 10 -20 24 -20 32 0 15 -9 16 -33 2z"/>
<path d="M3200 837 c0 -19 10 -27 26 -20 21 8 17 33 -6 33 -11 0 -20 -6 -20
-13z"/>
<path d="M3440 785 c0 -18 5 -25 20 -25 11 0 20 6 20 13 0 7 -9 18 -20 25 -18
11 -20 10 -20 -13z"/>
<path d="M3177 733 c-12 -11 -8 -23 8 -23 28 0 15 -34 -32 -82 -47 -48 -47
-48 -34 -84 l13 -36 -52 -53 c-68 -69 -48 -83 23 -16 48 46 59 51 99 51 52 0
69 15 108 93 22 46 28 52 53 49 28 -4 34 9 21 42 -12 31 -43 16 -86 -41 -23
-32 -43 -52 -46 -44 -2 7 1 18 7 24 6 6 11 20 11 31 0 18 -6 14 -37 -19 -45
-49 -57 -31 -16 23 43 54 46 61 33 77 -13 15 -61 20 -73 8z"/>
<path d="M2891 696 c-8 -9 -2 -21 19 -41 17 -16 34 -43 38 -60 12 -43 36 -39
40 6 5 58 -69 129 -97 95z"/>
<path d="M3508 613 c-38 -3 -52 -10 -73 -34 -29 -36 -30 -42 -9 -63 24 -25 36
-19 29 14 -6 25 -3 31 19 41 61 28 71 -21 14 -75 -29 -27 -35 -28 -97 -23 -43
3 -76 1 -96 -8 -40 -17 -102 -71 -92 -81 4 -4 17 2 30 14 41 39 85 50 169 44
72 -4 81 -3 103 18 14 13 25 28 25 33 0 5 9 20 20 34 15 19 17 29 9 39 -6 7
-8 22 -4 34 3 11 5 19 3 18 -2 -1 -24 -3 -50 -5z"/>
<path d="M3025 509 c-39 -34 -43 -47 -19 -56 19 -7 74 44 74 69 0 26 -14 22
-55 -13z"/>
<path d="M2850 475 c0 -8 9 -15 20 -15 12 0 38 -9 60 -20 59 -30 70 -23 26 15
-43 38 -106 50 -106 20z"/>
<path d="M3180 449 c-28 -11 -70 -48 -70 -61 0 -4 11 -8 25 -8 24 0 57 27 76
63 11 19 5 20 -31 6z"/>
<path d="M3303 403 c-35 -7 -27 -23 10 -23 41 0 77 10 77 21 0 9 -46 10 -87 2z"/>
</g>
</svg>
