<?xml version="1.0" standalone="no"?>
<!DOCTYPE svg PUBLIC "-//W3C//DTD SVG 20010904//EN"
 "http://www.w3.org/TR/2001/REC-SVG-20010904/DTD/svg10.dtd">
<svg version="1.0" xmlns="http://www.w3.org/2000/svg"
 width="600.000000pt" height="600.000000pt" viewBox="0 0 600.000000 600.000000"
 preserveAspectRatio="xMidYMid meet">

<g transform="translate(0.000000,600.000000) scale(0.100000,-0.100000)"
fill="#000000" stroke="none">
<path d="M1707 4668 c-8 -18 -25 -58 -37 -88 -12 -30 -35 -83 -51 -117 -16
-34 -29 -63 -29 -65 0 -4 139 -127 231 -206 l27 -22 114 67 c62 37 127 75 143
84 38 21 38 32 -5 215 l-33 140 -116 12 c-64 7 -141 12 -172 12 -54 0 -57 -1
-72 -32z"/>
<path d="M3387 4416 c-52 -28 -57 -34 -52 -56 4 -14 9 -42 12 -62 6 -42 9 -44
86 -53 l56 -7 19 38 c36 72 36 83 5 112 -70 65 -62 63 -126 28z"/>
<path d="M3715 4363 c-93 -8 -105 -12 -105 -39 0 -14 -4 -33 -9 -42 -5 -9 -12
-37 -15 -62 l-7 -45 74 -46 75 -47 25 22 c13 11 45 38 70 59 46 38 46 39 32
70 -7 18 -22 55 -33 82 -22 54 -26 56 -107 48z"/>
<path d="M3013 4290 c-34 -14 -29 -25 27 -59 51 -31 93 -38 159 -25 41 8 39
27 -5 61 -29 22 -49 28 -98 30 -33 2 -71 -2 -83 -7z"/>
<path d="M2803 4178 c-39 -40 -53 -76 -53 -134 0 -56 14 -57 68 -1 33 33 44
54 52 96 13 71 13 71 -13 71 -13 0 -37 -14 -54 -32z"/>
<path d="M2057 4136 c-55 -18 -103 -39 -108 -49 -5 -9 -8 -64 -7 -123 2 -83 6
-109 18 -114 67 -33 213 -81 221 -72 45 53 139 183 139 192 0 23 -131 200
-148 199 -9 0 -61 -15 -115 -33z"/>
<path d="M3913 4133 c-15 -21 -31 -42 -36 -48 -71 -92 -80 -108 -71 -120 5 -7
36 -51 69 -99 56 -81 62 -86 90 -81 34 6 130 33 160 45 11 5 28 11 38 14 14 5
17 20 19 101 1 52 2 107 2 123 1 23 -5 29 -44 43 -25 9 -52 18 -60 22 -37 15
-112 37 -125 37 -8 0 -27 -17 -42 -37z"/>
<path d="M3319 4083 c-21 -56 -21 -107 -1 -158 25 -63 47 -69 68 -19 22 52 15
131 -15 172 -27 39 -38 40 -52 5z"/>
<path d="M3016 4060 c-27 -11 -52 -24 -55 -29 -3 -5 -4 -39 -3 -75 l4 -66 36
-10 c21 -5 53 -11 72 -12 31 -3 37 1 67 47 18 27 33 55 33 61 0 19 -74 104
-90 103 -8 0 -37 -9 -64 -19z"/>
<path d="M2767 3883 c-14 -14 -6 -58 18 -98 26 -45 51 -65 103 -83 43 -15 48
-2 23 63 -15 40 -29 57 -72 87 -58 40 -62 41 -72 31z"/>
<path d="M2374 3847 c-6 -7 -35 -30 -63 -52 -28 -22 -51 -44 -51 -50 0 -12 54
-153 62 -160 10 -10 180 8 183 19 2 6 11 38 20 71 9 33 19 67 21 75 2 10 -22
31 -72 63 -82 51 -84 52 -100 34z"/>
<path d="M4235 3757 c-22 -12 -42 -25 -45 -28 -3 -3 -10 -8 -15 -10 -39 -15
-185 -114 -185 -126 0 -14 31 -153 50 -224 6 -20 10 -46 10 -58 0 -14 9 -25
28 -32 22 -9 166 -25 296 -32 28 -2 33 2 54 53 6 14 22 50 35 80 13 30 30 71
37 90 8 19 20 46 27 60 15 28 21 22 -172 186 -80 67 -75 66 -120 41z"/>
<path d="M3092 3714 c-57 -40 -61 -48 -33 -64 49 -26 141 -3 186 46 41 44 34
54 -38 54 -56 0 -69 -4 -115 -36z"/>
<path d="M2625 3685 c-8 -11 -21 -37 -31 -58 l-18 -37 46 -46 47 -46 61 33
c52 27 60 36 55 53 -3 12 -9 40 -12 64 -6 46 -10 48 -92 54 -35 3 -46 0 -56
-17z"/>
<path d="M3171 2376 c-6 -7 -9 -15 -6 -17 2 -3 -1 -25 -6 -49 -13 -58 -50
-105 -94 -121 -58 -21 -58 -59 -1 -59 l34 0 3 -182 c4 -170 6 -186 27 -220 26
-42 91 -78 141 -78 23 0 40 9 62 32 16 18 29 35 29 39 0 3 -21 9 -46 12 -32 3
-55 13 -73 31 l-26 26 0 168 0 167 81 5 c72 4 84 8 103 30 36 44 29 49 -81 52
l-103 3 -3 82 c-3 82 -17 109 -41 79z"/>
<path d="M2691 2221 c-27 -5 -43 -17 -69 -54 -19 -26 -33 -50 -31 -52 2 -2 31
6 64 17 91 30 170 14 194 -40 22 -48 -21 -82 -126 -101 -103 -19 -158 -39
-186 -69 -102 -106 -4 -271 162 -272 49 0 56 3 87 37 19 20 34 40 34 43 0 3
-26 4 -58 2 -92 -7 -144 28 -144 95 0 51 32 76 124 98 40 10 79 22 86 28 23
19 30 -6 34 -121 3 -110 4 -115 30 -137 16 -14 48 -27 75 -31 43 -6 48 -5 70
22 26 33 25 46 -3 54 -63 17 -72 49 -73 250 -1 146 -12 174 -82 207 -49 22
-135 33 -188 24z"/>
<path d="M3545 2221 c-18 -4 -41 -22 -62 -49 -37 -48 -42 -68 -15 -57 53 23
123 37 155 31 89 -17 118 -94 47 -128 -19 -9 -71 -24 -114 -33 -105 -22 -152
-42 -175 -74 -80 -114 19 -260 177 -261 49 0 56 3 87 38 19 20 35 39 35 42 0
3 -34 5 -75 5 -67 0 -77 3 -101 26 -19 19 -26 37 -26 65 0 52 31 77 124 99 40
10 78 22 85 27 26 20 33 -5 33 -111 0 -125 13 -153 78 -171 62 -17 78 -13 101
25 21 37 21 39 -22 49 -46 11 -57 53 -57 222 0 167 -10 198 -76 229 -29 14
-145 37 -164 34 -3 -1 -18 -4 -35 -8z"/>
<path d="M4165 2220 c-37 -8 -68 -24 -85 -44 -19 -24 -30 -19 -30 13 l0 29
-67 -5 c-38 -3 -70 -7 -72 -9 -2 -2 3 -12 12 -22 15 -16 17 -48 17 -249 0
-194 -2 -233 -15 -243 -9 -7 -13 -15 -10 -18 6 -6 165 -10 165 -4 0 2 -7 17
-16 34 -13 25 -15 60 -12 195 l3 165 38 34 c35 32 43 35 90 33 l52 -3 0 43 c0
50 -18 62 -70 51z"/>
<path d="M2083 2201 c-67 -23 -130 -67 -159 -111 -129 -195 -18 -423 212 -438
94 -6 118 1 143 42 12 18 21 35 21 37 0 2 -30 2 -66 1 -84 -5 -141 16 -188 68
-91 101 -65 260 53 319 51 26 117 32 186 18 l60 -12 3 -292 2 -293 25 -36 c14
-21 28 -54 31 -76 4 -21 9 -38 13 -38 3 0 14 18 24 39 15 33 17 75 17 387 0
292 2 353 15 370 8 10 15 22 15 27 0 4 -80 7 -177 7 -145 -1 -188 -4 -230 -19z"/>
<path d="M2030 1530 c-19 -10 -49 -31 -66 -47 -16 -15 -23 -23 -15 -17 97 70
214 54 281 -38 61 -84 32 -162 -114 -310 -47 -48 -86 -90 -86 -93 0 -3 29 17
64 45 138 108 226 233 226 320 0 67 -26 103 -109 147 -34 19 -139 14 -181 -7z"/>
<path d="M2655 1519 c-99 -51 -150 -118 -175 -231 -14 -63 -3 -147 27 -210 19
-40 92 -118 110 -118 7 0 13 -4 13 -8 0 -10 66 -42 83 -41 7 0 1 6 -14 12 -59
27 -122 103 -146 177 -30 89 -25 206 13 287 27 55 104 132 149 148 22 8 31 14
20 14 -11 0 -47 -13 -80 -30z"/>
<path d="M2838 1543 c6 -2 18 -2 25 0 6 3 1 5 -13 5 -14 0 -19 -2 -12 -5z"/>
<path d="M3335 1540 c-3 -5 -14 -10 -24 -10 -10 0 -38 -18 -62 -40 l-44 -40
46 30 c92 60 220 27 269 -69 46 -92 21 -141 -177 -339 -84 -84 -153 -155 -153
-158 0 -2 97 -4 216 -4 230 0 228 -1 252 53 19 44 14 50 -20 25 -31 -21 -44
-23 -195 -26 -156 -3 -163 -3 -163 16 0 11 17 33 37 48 192 150 283 266 283
360 0 63 -36 113 -109 152 -28 14 -147 16 -156 2z"/>
<path d="M3905 1540 c-3 -5 -14 -10 -24 -10 -10 0 -33 -15 -52 -32 -20 -18
-28 -28 -20 -22 86 57 206 39 267 -41 21 -28 27 -47 27 -88 0 -90 -59 -164
-318 -400 l-40 -36 222 -1 c213 0 223 1 242 21 18 20 36 67 28 75 -2 2 -14 -6
-27 -19 -23 -21 -35 -22 -191 -25 -204 -4 -211 1 -111 79 95 75 193 176 226
234 23 40 29 63 30 112 1 58 -1 64 -34 98 -19 20 -48 42 -64 50 -33 17 -152
20 -161 5z"/>
<path d="M2894 1527 c49 -31 86 -72 111 -124 16 -32 32 -66 37 -75 11 -24 10
-184 -1 -206 -5 -9 -17 -36 -26 -59 -19 -46 -64 -99 -108 -128 -41 -27 -26
-29 23 -3 66 36 114 82 139 134 13 27 27 57 32 66 5 10 9 51 9 93 0 59 -5 86
-26 130 -32 72 -85 130 -146 161 -49 25 -78 32 -44 11z"/>
<path d="M1956 964 l-60 -54 223 0 c169 0 225 3 234 13 19 21 37 56 37 73 0
12 -6 11 -32 -8 -31 -21 -44 -23 -195 -26 -157 -3 -163 -3 -163 16 0 11 6 22
13 25 6 2 10 7 7 10 -3 3 -32 -19 -64 -49z"/>
<path d="M2740 900 c0 -6 7 -10 15 -10 8 0 15 2 15 4 0 2 -7 6 -15 10 -8 3
-15 1 -15 -4z"/>
</g>
</svg>
